HIERARCHY
ROOT Hips
{
	OFFSET 0.00000 0.00000 0.00000
	CHANNELS 6 Xposition Yposition Zposition Zrotation Yrotation Xrotation 
	JOINT LHipJoint
	{
		OFFSET 0 0 0
		CHANNELS 3 Zrotation Yrotation Xrotation
		JOINT LeftHip
		{
			OFFSET 1.60223 -1.58443 0.78595
			CHANNELS 3 Zrotation Yrotation Xrotation
			JOINT LeftKnee
			{
				OFFSET 2.21690 -6.09089 0.00000
				CHANNELS 3 Zrotation Yrotation Xrotation
				JOINT LeftAnkle
				{
					OFFSET 2.34805 -6.45122 0.00000
					CHANNELS 3 Zrotation Yrotation Xrotation
					JOINT LeftToe
					{
						OFFSET 0.35452 -0.97402 1.38549
						CHANNELS 3 Zrotation Yrotation Xrotation
						End Site
						{
							OFFSET 0.00000 -0.00000 0.82816
						}
					}
				}
			}
		}
	}
	JOINT RHipJoint
	{
		OFFSET 0 0 0
		CHANNELS 3 Zrotation Yrotation Xrotation
		JOINT RightHip
		{
			OFFSET -1.56524 -1.58443 0.78595
			CHANNELS 3 Zrotation Yrotation Xrotation
			JOINT RightKnee
			{
				OFFSET -2.15558 -5.92241 0.00000
				CHANNELS 3 Zrotation Yrotation Xrotation
				JOINT RightAnkle
				{
					OFFSET -2.35077 -6.45870 0.00000
					CHANNELS 3 Zrotation Yrotation Xrotation
					JOINT RightToe
					{
						OFFSET -0.26910 -0.73935 1.33295
						CHANNELS 3 Zrotation Yrotation Xrotation
						End Site
						{
							OFFSET -0.00000 -0.00000 0.75962
						}
					}
				}
			}
		}
	}
	JOINT lowerback
	{
		OFFSET 0 0 0
		CHANNELS 3 Zrotation Yrotation Xrotation
		JOINT Chest
		{
			OFFSET -0.05489 1.97104 -0.02993
			CHANNELS 3 Zrotation Yrotation Xrotation
			JOINT Chest2
			{
				OFFSET -0.00702 1.94230 0.13626
				CHANNELS 3 Zrotation Yrotation Xrotation
				JOINT lowerneck
				{
					OFFSET 0 0 0
					CHANNELS 3 Zrotation Yrotation Xrotation
					JOINT Neck
					{
						OFFSET -0.07858 1.62869 -0.02510
						CHANNELS 3 Zrotation Yrotation Xrotation
						JOINT Head
						{
							OFFSET 0.13978 1.59213 -0.29859
							CHANNELS 3 Zrotation Yrotation Xrotation
							End Site
							{
								OFFSET 0.05353 1.64420 -0.10000
							}
						}
					}
				}
				JOINT LeftCollar
				{
					OFFSET 0 0 0
					CHANNELS 3 Zrotation Yrotation Xrotation
					JOINT LeftShoulder
					{
						OFFSET 3.48263 1.15278 0.52941
CHANNELS 3 Zrotation Xrotation Yrotation
						JOINT LeftElbow
						{
OFFSET 0 -4.592070 -0.000000
CHANNELS 3 Zrotation Xrotation Yrotation
							JOINT LeftWrist
							{
OFFSET 0 -2.981090 -0.000000
CHANNELS 3 Zrotation Xrotation Yrotation
								JOINT lhand
								{
									OFFSET 0 0 0
CHANNELS 3 Zrotation Xrotation Yrotation
									JOINT LFingers
									{
OFFSET 0 -0.480200 -0.000000
CHANNELS 3 Zrotation Xrotation Yrotation
										End Site
										{
OFFSET 0 -0.387150 -0.000000
										}
									}
								}
								JOINT LThumb
								{
OFFSET 0 0.000000 0.000000
CHANNELS 3 Zrotation Xrotation Yrotation
									End Site
									{
OFFSET 0 -0.393060 0.393060
									}
								}
							}
						}
					}
				}
				JOINT RightCollar
				{
					OFFSET 0 0 0
					CHANNELS 3 Zrotation Yrotation Xrotation
					JOINT RightShoulder
					{
						OFFSET -3.52496 1.12722 0.24548
CHANNELS 3 Zrotation Xrotation Yrotation
						JOINT RightElbow
						{
OFFSET 0 -4.765080 -0.000000
CHANNELS 3 Zrotation Xrotation Yrotation
							JOINT RightWrist
							{
OFFSET 0 -2.789020 -0.000000
CHANNELS 3 Zrotation Xrotation Yrotation
								JOINT rhand
								{
									OFFSET 0 0 0
CHANNELS 3 Zrotation Xrotation Yrotation
									JOINT RFingers
									{
OFFSET 0 -0.721300 -0.000000
CHANNELS 3 Zrotation Xrotation Yrotation
										End Site
										{
OFFSET 0 -0.581530 -0.000000
										}
									}
								}
								JOINT RThumb
								{
OFFSET 0 0.000000 0.000000
CHANNELS 3 Zrotation Xrotation Yrotation
									End Site
									{
OFFSET 0 -0.590410 0.590410
									}
								}
							}
						}
					}
				}
			}
		}
	}
}
MOTION
Frames: 9
Frame Time: 0.008333333333333333
1.173468 15.607532 -2.883864 -76.914682 -84.820601 -276.952873 0.000000 0.000000 0.000000 -12.030961 -1.407934 -29.975883 18.111262 19.906634 84.468319 -0.032765 7.161796 4.215007 1.695260 8.200063 23.323489 0.000000 0.000000 0.000000 30.625420 13.933766 -26.015688 -3.015894 -10.719860 31.341627 -0.392606 0.570955 -11.652880 -0.056689 -0.728143 2.003294 6.196666 1.900389 5.962734 -1.398550 2.893750 -11.657548 -5.567901 0.300338 -16.032838 -1.810877 -0.073616 -0.712705 2.715562 -0.563356 13.160708 1.208561 -0.341732 4.488104 0.000000 0.000000 0.000000 25.484338 22.847259 44.457997 36.666146 -45.939609 16.008199 47.014304 39.506715 -22.509541 0.000000 0.000000 0.000000 -7.125000 0.000000 0.000000 21.981033 59.904844 -8.235371 0.000000 0.000000 0.000000 -126.117245 -63.640119 -72.739000 -150.756586 -40.228159 -109.079476 -3.960898 -50.938006 -53.491355 0.000000 0.000000 0.000000 7.125000 0.000000 0.000000 17.532822 -21.562698 23.588317
0.600900 15.563091 -2.972786 -78.612035 -81.544893 -277.890858 0.000000 0.000000 0.000000 -5.237502 -7.619940 -39.151989 20.657712 19.989490 91.923519 -0.046072 6.370330 3.106317 1.460921 7.638824 21.622401 0.000000 0.000000 0.000000 35.915000 9.519652 -19.856593 -2.461534 -9.766920 28.225844 -0.490871 2.248424 -12.652163 -0.047586 1.381916 -3.800802 2.022999 -0.321750 6.729910 3.612456 -0.017515 -8.568278 2.858102 -0.082539 -13.127853 0.484807 2.201743 -2.623862 -1.432592 2.957302 11.063111 -0.436340 1.361165 4.114444 0.000000 0.000000 0.000000 20.880513 33.715405 47.124730 24.958437 -36.141335 8.273580 47.063980 42.633008 -23.090886 0.000000 0.000000 0.000000 -7.125000 0.000000 0.000000 22.238498 60.630482 -8.724894 0.000000 0.000000 0.000000 -115.453999 -67.255873 -60.387464 -154.544887 -36.664411 -111.439383 -12.989028 -48.202274 -62.165920 0.000000 0.000000 0.000000 7.125000 0.000000 0.000000 16.241951 -30.981898 22.825677
0.078021 15.537494 -3.007291 -65.643956 -77.866116 -293.499022 0.000000 0.000000 0.000000 0.022611 -14.959352 -44.917522 18.992840 19.969279 87.053075 -0.142986 6.756582 -3.218589 0.891650 6.018615 16.838482 0.000000 0.000000 0.000000 39.439416 3.348913 -15.595855 -2.061760 -8.992825 25.773405 -0.661898 3.711397 -14.558332 -0.013471 0.731825 -2.011232 -0.125835 -1.471845 8.577245 6.663854 -1.554173 -6.496606 7.722413 -0.482082 -11.722776 -0.439287 2.637735 -4.228399 -2.485297 3.751194 10.193227 -0.570401 1.679907 4.134850 0.000000 0.000000 0.000000 20.739818 33.304651 52.753661 20.704709 -31.481599 5.895160 46.940120 46.307546 -27.131644 0.000000 0.000000 0.000000 -7.125000 0.000000 0.000000 23.402142 65.425216 -11.844255 0.000000 0.000000 0.000000 -94.167487 -64.799476 -38.356904 -156.789815 -34.316458 -112.742951 -22.624780 -51.219866 -67.758499 0.000000 0.000000 0.000000 7.125000 0.000000 0.000000 15.635553 -37.681567 22.318265
-0.408076 15.564569 -2.944641 -53.992426 -75.786204 -306.414720 0.000000 0.000000 0.000000 0.848433 -20.834881 -46.930315 14.126364 19.151853 72.589935 0.058072 3.157171 -6.797046 0.031276 1.140165 3.134520 0.000000 0.000000 0.000000 39.823986 -0.564920 -11.877425 -1.626139 -8.039649 22.834577 -0.809730 2.975469 -16.256649 -0.009990 0.643890 -1.769372 0.632502 -0.202704 9.466631 5.801558 0.267636 -5.960819 5.974608 0.308371 -11.868486 -2.506742 -0.062600 -4.094512 -0.345332 0.073197 9.496762 0.328085 -0.099344 3.811127 0.000000 0.000000 0.000000 28.441183 22.503535 51.930789 22.862602 -33.938255 7.061483 46.938454 46.592989 -26.426298 0.000000 0.000000 0.000000 -7.125000 0.000000 0.000000 23.154403 64.596238 -11.267979 0.000000 0.000000 0.000000 -73.493870 -48.598450 -22.461425 -158.320810 -32.612557 -113.587935 -35.851660 -60.617400 -68.606838 0.000000 0.000000 0.000000 7.125000 0.000000 0.000000 12.911403 -41.297640 18.407701
-0.880012 15.656371 -2.809194 -47.864873 -76.743252 -314.513471 0.000000 0.000000 0.000000 -4.043231 -19.691655 -43.611165 9.315739 16.995923 57.160156 0.162245 1.729038 -8.448819 1.165514 -6.778246 -19.088608 0.000000 0.000000 0.000000 38.171542 0.748571 -4.120072 -1.085763 -6.619457 18.593880 -0.779820 -1.777067 -17.416408 -0.093917 1.922868 -5.294268 3.333022 3.392678 10.734189 2.455775 5.309267 -5.231094 -0.281638 2.366638 -11.650762 -7.552656 -4.459486 -2.494376 5.640999 -6.077683 7.771876 2.801061 -3.064748 3.269694 0.000000 0.000000 0.000000 37.076259 1.681529 46.306116 24.426160 -35.611515 7.953412 47.680114 45.563463 -25.337540 0.000000 0.000000 0.000000 -7.125000 0.000000 0.000000 23.962062 63.534165 -11.090400 0.000000 0.000000 0.000000 -58.720216 -21.414449 -23.621774 -157.952833 -33.028011 -113.387477 -34.052002 -56.582989 -66.537554 0.000000 0.000000 0.000000 7.125000 0.000000 0.000000 12.048424 -39.262941 17.118485
-1.318161 15.809237 -2.588081 -39.495319 -80.317210 -323.535207 0.000000 0.000000 0.000000 -11.674551 -14.395896 -39.490838 6.801371 15.161645 48.117818 0.128924 1.488837 -7.472900 3.116519 -10.876772 -31.870271 0.000000 0.000000 0.000000 33.481738 -1.629433 0.412951 -0.709297 -5.382258 15.002239 -0.794515 -0.510953 -17.035995 -0.272099 3.354198 -9.266430 4.353593 7.023147 10.762680 -0.874930 10.022280 -5.057778 -5.247423 4.462696 -10.565514 -11.947968 -7.888582 0.083381 10.217267 -11.136388 7.098934 4.603528 -5.604604 3.335716 0.000000 0.000000 0.000000 38.713223 -15.646419 39.900732 27.154741 -38.319445 9.597619 47.492719 44.907010 -24.651714 0.000000 0.000000 0.000000 -7.125000 0.000000 0.000000 23.414543 62.653667 -10.340090 0.000000 0.000000 0.000000 -43.683764 4.017302 -30.281017 -151.840257 -39.241170 -109.767285 -34.165712 -55.571007 -60.068745 0.000000 0.000000 0.000000 7.125000 0.000000 0.000000 8.471031 -34.055607 11.831059
-1.753740 15.828718 -2.361227 -45.368428 -82.906622 -317.319200 0.000000 0.000000 0.000000 -12.981433 -12.890846 -34.778792 5.884275 14.314416 44.513995 0.002278 -1.162757 -1.599621 0.149874 -2.476449 -6.825328 0.000000 0.000000 0.000000 31.956344 -0.278794 3.182659 -0.638962 -5.114145 14.234482 -1.002097 -1.806551 -19.635173 -0.116998 1.869917 -5.158609 5.132269 8.626712 9.164972 -2.195671 12.084404 -5.431110 -7.082191 5.439690 -9.378342 -11.805030 -8.814741 0.673465 10.985773 -12.574551 7.413592 4.739725 -6.318348 3.533707 0.000000 0.000000 0.000000 35.690462 -18.327346 32.453496 37.113891 -46.223640 16.335481 45.747339 40.047803 -24.809961 0.000000 0.000000 0.000000 -7.125000 0.000000 0.000000 20.808729 62.308251 -8.962671 0.000000 0.000000 0.000000 -32.612416 14.748796 -27.852380 -134.373698 -50.992308 -97.252140 -27.169148 -57.690769 -57.846906 0.000000 0.000000 0.000000 7.125000 0.000000 0.000000 9.850326 -30.151027 13.584424
-2.145325 15.907008 -2.270384 -51.990960 -85.590322 -309.702618 0.000000 0.000000 0.000000 -15.087978 -7.867984 -32.400085 4.989615 13.370994 40.775721 0.021881 -7.646329 -5.827449 0.469411 -4.390684 -12.179064 0.000000 0.000000 0.000000 30.895554 3.563438 5.789276 -0.614358 -5.016504 13.955640 -0.932535 -4.478650 -20.391516 -0.447156 4.250520 -11.788297 1.516899 7.011355 7.255875 -2.140069 9.366721 -6.309526 -4.567550 4.305595 -10.172838 -9.767643 -6.376771 -2.294138 10.186726 -9.165758 9.574421 4.264342 -4.507798 4.148697 0.000000 0.000000 0.000000 34.758536 -3.481619 31.459050 52.676821 -54.002350 28.330724 46.329947 37.310746 -24.314518 0.000000 0.000000 0.000000 -7.125000 0.000000 0.000000 21.553631 61.891340 -9.099303 0.000000 0.000000 0.000000 -29.828733 6.446273 -18.947734 -98.455259 -59.613590 -67.309166 -24.315108 -42.489318 -53.814981 0.000000 0.000000 0.000000 7.125000 0.000000 0.000000 9.441572 -25.735600 12.722536
-2.385510 15.974149 -2.236610 -14.243560 -85.936680 -345.249750 0.000000 0.000000 0.000000 -18.205975 -6.680507 -31.240742 4.120761 12.318799 36.870315 -0.082314 -9.974250 -5.520000 0.473930 -4.414864 -12.246946 0.000000 0.000000 0.000000 28.514466 3.422692 2.556223 -0.879027 -5.976025 16.715210 -0.985305 -7.386985 -22.812975 -0.003962 0.325207 -0.893606 -3.483731 2.594641 5.058651 -1.742308 2.779224 -8.067871 -0.338870 1.470380 -11.596315 -3.898486 -2.171912 -2.595647 5.532760 -3.354058 10.230704 2.410371 -1.633561 4.018352 0.000000 0.000000 0.000000 32.857909 19.337864 36.208848 54.936466 -54.797276 30.165311 48.960027 36.734777 -26.771139 0.000000 0.000000 0.000000 -7.125000 0.000000 0.000000 26.733865 65.637315 -13.762850 0.000000 0.000000 0.000000 -26.682030 -9.928016 -13.064179 -66.100279 -57.702903 -39.464559 -15.243291 -31.168180 -51.209765 0.000000 0.000000 0.000000 7.125000 0.000000 0.000000 12.433379 -21.224794 16.383581
